<svg width="51" height="51" viewBox="0 0 51 51" fill="none" xmlns="http://www.w3.org/2000/svg">
<g filter="url(#filter0_bi_252_517)">
<circle cx="25.5951" cy="25.5433" r="24.1029" fill="black" fill-opacity="0.25"/>
<circle cx="25.5951" cy="25.5433" r="24.605" stroke="url(#paint0_linear_252_517)" stroke-opacity="0.2" stroke-width="1.00429"/>
</g>
<path d="M22.4785 17.4062V20.4191C22.4785 21.5284 21.5792 22.4277 20.4699 22.4277H17.457" stroke="white" stroke-width="1.50643" stroke-linecap="round" stroke-linejoin="round"/>
<path d="M28.5059 33.4746L28.5059 30.4618C28.5059 29.3524 29.4052 28.4532 30.5145 28.4532L33.5273 28.4532" stroke="white" stroke-width="1.50643" stroke-linecap="round" stroke-linejoin="round"/>
<path d="M33.5273 22.4277L30.5145 22.4277C29.4052 22.4277 28.5059 21.5284 28.5059 20.4191L28.5059 17.4062" stroke="white" stroke-width="1.50643" stroke-linecap="round" stroke-linejoin="round"/>
<path d="M17.457 28.4532L20.4699 28.4532C21.5792 28.4532 22.4785 29.3524 22.4785 30.4618L22.4785 33.4746" stroke="white" stroke-width="1.50643" stroke-linecap="round" stroke-linejoin="round"/>
<defs>
<filter id="filter0_bi_252_517" x="-19.5974" y="-19.6492" width="90.3863" height="90.3853" filterUnits="userSpaceOnUse" color-interpolation-filters="sRGB">
<feFlood flood-opacity="0" result="BackgroundImageFix"/>
<feGaussianBlur in="BackgroundImageFix" stdDeviation="10.0429"/>
<feComposite in2="SourceAlpha" operator="in" result="effect1_backgroundBlur_252_517"/>
<feBlend mode="normal" in="SourceGraphic" in2="effect1_backgroundBlur_252_517" result="shape"/>
<feColorMatrix in="SourceAlpha" type="matrix" values="0 0 0 0 0 0 0 0 0 0 0 0 0 0 0 0 0 0 127 0" result="hardAlpha"/>
<feMorphology radius="1.46671" operator="dilate" in="SourceAlpha" result="effect2_innerShadow_252_517"/>
<feOffset dx="-0.733357" dy="0.733357"/>
<feGaussianBlur stdDeviation="0.366678"/>
<feComposite in2="hardAlpha" operator="arithmetic" k2="-1" k3="1"/>
<feColorMatrix type="matrix" values="0 0 0 0 1 0 0 0 0 1 0 0 0 0 1 0 0 0 0.35 0"/>
<feBlend mode="normal" in2="shape" result="effect2_innerShadow_252_517"/>
</filter>
<linearGradient id="paint0_linear_252_517" x1="44.061" y1="4.74486" x2="25.5951" y2="49.6462" gradientUnits="userSpaceOnUse">
<stop stop-color="white"/>
<stop offset="1" stop-color="white" stop-opacity="0"/>
</linearGradient>
</defs>
</svg>
