<svg width="67" height="67" viewBox="0 0 67 67" fill="none" xmlns="http://www.w3.org/2000/svg">
<g filter="url(#filter0_bi_252_522)">
<circle cx="33.8247" cy="33.6704" r="32.1372" fill="black" fill-opacity="0.25"/>
<circle cx="33.8247" cy="33.6704" r="32.6393" stroke="url(#paint0_linear_252_522)" stroke-opacity="0.2" stroke-width="1.00429"/>
</g>
<path d="M30.8133 39.6962V29.6533L28.8047 31.5364" stroke="white" stroke-opacity="0.7" stroke-width="1.50643" stroke-linecap="round" stroke-linejoin="round"/>
<path d="M34.8281 39.0687C35.3527 39.4627 36.0046 39.6962 36.7112 39.6962C38.4444 39.6962 39.8496 38.2911 39.8496 36.5578C39.8496 34.8245 38.4444 33.4194 36.7112 33.4194C36.0046 33.4194 35.3527 33.6529 34.8281 34.0468L35.4558 29.6533H39.8496" stroke="white" stroke-opacity="0.7" stroke-width="1.50643" stroke-linecap="round" stroke-linejoin="round"/>
<path d="M24.2339 24.0496C18.5549 29.3105 18.2442 38.1489 23.54 43.7907C28.8358 49.4324 37.7326 49.741 43.4117 44.48C49.0907 39.219 49.4014 30.3806 44.1056 24.7389C41.0934 21.5299 36.916 20.0463 32.8285 20.3317M34.8271 17.0996L31.246 20.4918L34.8271 24.1296" stroke="white" stroke-opacity="0.7" stroke-width="2.51072" stroke-linecap="round" stroke-linejoin="round"/>
<defs>
<filter id="filter0_bi_252_522" x="-19.4021" y="-19.5564" width="106.453" height="106.454" filterUnits="userSpaceOnUse" color-interpolation-filters="sRGB">
<feFlood flood-opacity="0" result="BackgroundImageFix"/>
<feGaussianBlur in="BackgroundImageFix" stdDeviation="10.0429"/>
<feComposite in2="SourceAlpha" operator="in" result="effect1_backgroundBlur_252_522"/>
<feBlend mode="normal" in="SourceGraphic" in2="effect1_backgroundBlur_252_522" result="shape"/>
<feColorMatrix in="SourceAlpha" type="matrix" values="0 0 0 0 0 0 0 0 0 0 0 0 0 0 0 0 0 0 127 0" result="hardAlpha"/>
<feMorphology radius="1.46671" operator="dilate" in="SourceAlpha" result="effect2_innerShadow_252_522"/>
<feOffset dx="-0.733357" dy="0.733357"/>
<feGaussianBlur stdDeviation="0.366678"/>
<feComposite in2="hardAlpha" operator="arithmetic" k2="-1" k3="1"/>
<feColorMatrix type="matrix" values="0 0 0 0 1 0 0 0 0 1 0 0 0 0 1 0 0 0 0.35 0"/>
<feBlend mode="normal" in2="shape" result="effect2_innerShadow_252_522"/>
</filter>
<linearGradient id="paint0_linear_252_522" x1="58.4459" y1="5.93911" x2="33.8247" y2="65.8075" gradientUnits="userSpaceOnUse">
<stop stop-color="white"/>
<stop offset="1" stop-color="white" stop-opacity="0"/>
</linearGradient>
</defs>
</svg>
