<svg width="67" height="67" viewBox="0 0 67 67" fill="none" xmlns="http://www.w3.org/2000/svg">
<g filter="url(#filter0_bi_252_524)">
<circle cx="33.6489" cy="33.6704" r="32.1372" fill="black" fill-opacity="0.25"/>
<circle cx="33.6489" cy="33.6704" r="32.6393" stroke="url(#paint0_linear_252_524)" stroke-opacity="0.2" stroke-width="1.00429"/>
</g>
<path d="M30.4969 39.5585V29.5156L28.4883 31.3987" stroke="white" stroke-opacity="0.7" stroke-width="1.50643" stroke-linecap="round" stroke-linejoin="round"/>
<path d="M34.5156 38.931C35.0402 39.325 35.6921 39.5585 36.3987 39.5585C38.1319 39.5585 39.5371 38.1534 39.5371 36.4201C39.5371 34.6868 38.1319 33.2817 36.3987 33.2817C35.6921 33.2817 35.0402 33.5152 34.5156 33.9091L35.1433 29.5156H39.5371" stroke="white" stroke-opacity="0.7" stroke-width="1.50643" stroke-linecap="round" stroke-linejoin="round"/>
<path d="M43.102 23.9119C48.781 29.1728 49.0917 38.0112 43.7959 43.653C38.5001 49.2947 29.6033 49.6033 23.9243 44.3423C18.2452 39.0813 17.9345 30.243 23.2303 24.6012C26.2426 21.3922 30.4199 19.9086 34.5074 20.194M32.5088 16.9619L36.0899 20.3541L32.5088 23.9919" stroke="white" stroke-opacity="0.7" stroke-width="2.51072" stroke-linecap="round" stroke-linejoin="round"/>
<defs>
<filter id="filter0_bi_252_524" x="-19.5779" y="-19.5564" width="106.453" height="106.454" filterUnits="userSpaceOnUse" color-interpolation-filters="sRGB">
<feFlood flood-opacity="0" result="BackgroundImageFix"/>
<feGaussianBlur in="BackgroundImageFix" stdDeviation="10.0429"/>
<feComposite in2="SourceAlpha" operator="in" result="effect1_backgroundBlur_252_524"/>
<feBlend mode="normal" in="SourceGraphic" in2="effect1_backgroundBlur_252_524" result="shape"/>
<feColorMatrix in="SourceAlpha" type="matrix" values="0 0 0 0 0 0 0 0 0 0 0 0 0 0 0 0 0 0 127 0" result="hardAlpha"/>
<feMorphology radius="1.46671" operator="dilate" in="SourceAlpha" result="effect2_innerShadow_252_524"/>
<feOffset dx="-0.733357" dy="0.733357"/>
<feGaussianBlur stdDeviation="0.366678"/>
<feComposite in2="hardAlpha" operator="arithmetic" k2="-1" k3="1"/>
<feColorMatrix type="matrix" values="0 0 0 0 1 0 0 0 0 1 0 0 0 0 1 0 0 0 0.35 0"/>
<feBlend mode="normal" in2="shape" result="effect2_innerShadow_252_524"/>
</filter>
<linearGradient id="paint0_linear_252_524" x1="58.2701" y1="5.93911" x2="33.6489" y2="65.8075" gradientUnits="userSpaceOnUse">
<stop stop-color="white"/>
<stop offset="1" stop-color="white" stop-opacity="0"/>
</linearGradient>
</defs>
</svg>
