<svg width="19" height="19" viewBox="0 0 19 19" fill="none" xmlns="http://www.w3.org/2000/svg">
<path fill-rule="evenodd" clip-rule="evenodd" d="M9.39792 15.7361C12.8411 15.7438 15.6385 12.9587 15.6462 9.51552C15.6538 6.07234 12.8688 3.2749 9.42558 3.26727C5.9824 3.25963 3.18496 6.04469 3.17732 9.48786C3.16969 12.931 5.95474 15.7285 9.39792 15.7361ZM17.2048 9.51898C17.1952 13.823 13.6984 17.3043 9.39447 17.2947C5.09049 17.2852 1.60917 13.7884 1.61872 9.48441C1.62826 5.18043 5.12506 1.69911 9.42903 1.70866C13.733 1.7182 17.2143 5.215 17.2048 9.51898ZM9.41074 9.9582L7.62784 8.16738C7.32418 7.86236 6.83075 7.86127 6.52574 8.16493C6.22073 8.46859 6.21963 8.96202 6.5233 9.26703L8.85602 11.6101C9.15968 11.9151 9.65311 11.9162 9.95812 11.6126L12.3012 9.27985C12.6062 8.97619 12.6073 8.48276 12.3037 8.17775C12 7.87273 11.5066 7.87164 11.2016 8.1753L9.41074 9.9582Z" fill="#B0B0B0"/>
</svg>
