<svg width="33" height="35" viewBox="0 0 33 35" fill="none" xmlns="http://www.w3.org/2000/svg">
<path d="M13.4969 24.5585V14.5156L11.4883 16.3987" stroke="white" stroke-opacity="0.7" stroke-width="1.50643" stroke-linecap="round" stroke-linejoin="round"/>
<path d="M17.5156 23.931C18.0402 24.325 18.6921 24.5585 19.3987 24.5585C21.1319 24.5585 22.5371 23.1534 22.5371 21.4201C22.5371 19.6868 21.1319 18.2817 19.3987 18.2817C18.6921 18.2817 18.0402 18.5152 17.5156 18.9091L18.1433 14.5156H22.5371" stroke="white" stroke-opacity="0.7" stroke-width="1.50643" stroke-linecap="round" stroke-linejoin="round"/>
<path d="M26.102 8.91186C31.781 14.1728 32.0917 23.0112 26.7959 28.653C21.5001 34.2947 12.6033 34.6033 6.92427 29.3423C1.24523 24.0813 0.93455 15.243 6.23033 9.60123C9.24258 6.39221 13.4199 4.90863 17.5074 5.19402M15.5088 1.96191L19.0899 5.35412L15.5088 8.99192" stroke="white" stroke-opacity="0.7" stroke-width="2.51072" stroke-linecap="round" stroke-linejoin="round"/>
</svg>
